HIERARCHY
ROOT Hips
{
 OFFSET 0.000000 0.000000 0.000000
 CHANNELS 6 Xposition Yposition Zposition Yrotation Xrotation Zrotation
 JOINT Chest
 {
  OFFSET 0.000000 9.588913 -0.003946
  CHANNELS 3 Yrotation Xrotation Zrotation
  JOINT Chest2
  {
   OFFSET 0.000000 9.541882 0.008053
   CHANNELS 3 Yrotation Xrotation Zrotation
   JOINT Chest3
   {
    OFFSET 0.000000 9.501360 0.000000
    CHANNELS 3 Yrotation Xrotation Zrotation
    JOINT Chest4
    {
     OFFSET 0.000000 9.491660 0.000000
     CHANNELS 3 Yrotation Xrotation Zrotation
     JOINT Neck
     {
      OFFSET 0.000000 14.331917 0.000000
      CHANNELS 3 Yrotation Xrotation Zrotation
      JOINT Head
      {
       OFFSET 0.000000 8.884799 0.017034
       CHANNELS 3 Yrotation Xrotation Zrotation
       End Site
       {
        OFFSET 0.000000 16.896195 0.008993
       }
      }
     }
     JOINT RightCollar
     {
      OFFSET -2.923010 9.499495 0.000000
      CHANNELS 3 Yrotation Xrotation Zrotation
      JOINT RightShoulder
      {
       OFFSET -13.795216 0.000000 0.000000
       CHANNELS 3 Yrotation Xrotation Zrotation
       JOINT RightElbow
       {
        OFFSET -30.272209 0.000000 0.000000
        CHANNELS 3 Yrotation Xrotation Zrotation
        JOINT RightWrist
        {
         OFFSET -24.478199 0.000000 0.000000
         CHANNELS 3 Yrotation Xrotation Zrotation
         End Site
         {
          OFFSET -18.090752 0.000000 0.000000
         }
        }
       }
      }
     }
     JOINT LeftCollar
     {
      OFFSET 2.923010 9.499495 0.000000
      CHANNELS 3 Yrotation Xrotation Zrotation
      JOINT LeftShoulder
      {
       OFFSET 13.795216 0.000000 0.000000
       CHANNELS 3 Yrotation Xrotation Zrotation
       JOINT LeftElbow
       {
        OFFSET 30.272209 0.000000 0.000000
        CHANNELS 3 Yrotation Xrotation Zrotation
        JOINT LeftWrist
        {
         OFFSET 24.478199 0.000000 0.000000
         CHANNELS 3 Yrotation Xrotation Zrotation
         End Site
         {
          OFFSET 18.090752 0.000000 0.000000
         }
        }
       }
      }
     }
    }
   }
  }
 }
 JOINT RightHip
 {
  OFFSET -7.826875 0.019532 0.001973
  CHANNELS 3 Yrotation Xrotation Zrotation
  JOINT RightKnee
  {
   OFFSET 0.000000 -40.546152 -0.001885
   CHANNELS 3 Yrotation Xrotation Zrotation
   JOINT RightAnkle
   {
    OFFSET 0.000000 -39.417092 -0.003189
    CHANNELS 3 Yrotation Xrotation Zrotation
    JOINT RightToe
    {
     OFFSET 0.000000 -7.579396 17.243563
     CHANNELS 3 Yrotation Xrotation Zrotation
     End Site
     {
      OFFSET 0.000000 -1.500329 6.694466
     }
    }
   }
  }
 }
 JOINT LeftHip
 {
  OFFSET 7.826875 0.019532 0.001973
  CHANNELS 3 Yrotation Xrotation Zrotation
  JOINT LeftKnee
  {
   OFFSET 0.000000 -40.546152 -0.001885
   CHANNELS 3 Yrotation Xrotation Zrotation
   JOINT LeftAnkle
   {
    OFFSET 0.000000 -39.417092 -0.003189
    CHANNELS 3 Yrotation Xrotation Zrotation
    JOINT LeftToe
    {
     OFFSET 0.000000 -7.579396 17.243563
     CHANNELS 3 Yrotation Xrotation Zrotation
     End Site
     {
      OFFSET 0.000000 -1.500329 6.694466
     }
    }
   }
  }
 }
}
MOTION
Frames: 15
Frame Time: 0.008333
-12.848910 89.567148 8.779549 -157.777183 -6.298247 -7.699956 3.579105 13.928676 -1.834141 2.181886 7.895193 -0.790448 2.716637 9.873202 -0.942729 2.181890 7.895195 -0.790442 -2.732230 11.350157 2.442359 -3.484730 -13.715430 3.242334 11.383239 1.252067 -14.618151 -12.148305 -35.096502 41.323876 50.693372 -16.488406 4.081850 5.304719 -10.829577 -6.561221 -16.582746 -5.424440 2.461147 7.041118 -51.440905 -70.502151 -23.418526 -2.835417 -6.364452 -5.765693 1.086978 -4.534939 -5.116401 -7.007555 1.798532 6.233063 9.688362 1.008544 5.099891 12.460433 11.385800 0.282514 -6.669943 -5.205113 16.516775 3.559083 6.728291 -5.072743 2.481948 -0.945027 -2.384854 -2.498778 2.090540 0.062127 0.678640 0.031808
-12.879855 89.557775 8.715933 -157.705943 -6.370745 -7.645792 3.538206 13.872828 -1.790652 2.156619 7.863828 -0.763407 2.685586 9.833798 -0.909574 2.156624 7.863830 -0.763400 -2.588640 11.417794 2.349113 -3.303093 -13.646776 3.103188 11.360229 1.274660 -14.547065 -12.167701 -35.135876 41.369461 51.044586 -16.324981 4.496980 5.361145 -10.815406 -6.645418 -16.637221 -5.425662 2.387887 7.096572 -51.355655 -70.590780 -22.975273 -2.825685 -6.104022 -5.957428 1.066400 -4.687745 -5.087525 -6.954083 1.706184 6.277199 9.878810 1.033412 5.043996 12.195586 11.330219 0.273867 -6.560280 -5.151485 16.423770 3.683844 6.706463 -5.082532 2.509864 -0.956877 -2.364309 -2.561732 2.087367 0.063813 0.678685 0.032631
-12.909505 89.547391 8.650649 -157.632296 -6.443878 -7.592347 3.493529 13.816272 -1.747450 2.129021 7.832262 -0.735590 2.651626 9.794137 -0.875496 2.129025 7.832264 -0.735583 -2.447006 11.492048 2.250538 -3.122823 -13.571326 2.959184 11.340613 1.293731 -14.473610 -12.187704 -35.211928 41.419882 51.373200 -16.173055 4.949893 5.409579 -10.800967 -6.707883 -16.686987 -5.431620 2.305046 7.133790 -51.272337 -70.657092 -22.523534 -2.823768 -5.837969 -6.154523 1.042389 -4.845042 -5.050969 -6.896560 1.614468 6.328325 10.066763 1.054230 4.990864 11.924459 11.281234 0.266918 -6.449940 -5.097977 16.318215 3.812270 6.684781 -5.091148 2.535015 -0.966627 -2.337512 -2.627454 2.080725 0.065420 0.682015 0.034019
-12.937944 89.535731 8.584193 -157.557114 -6.516359 -7.536547 3.445403 13.758386 -1.705173 2.099698 7.800287 -0.707247 2.615514 9.753964 -0.840796 2.099702 7.800289 -0.707241 -2.308948 11.570341 2.151643 -2.946989 -13.491747 2.816231 11.316290 1.316216 -14.401730 -12.209234 -35.334772 41.485918 51.675166 -16.012284 5.439702 5.460921 -10.786855 -6.755293 -16.733412 -5.443040 2.212229 7.171839 -51.187702 -70.712893 -22.069313 -2.825740 -5.577666 -6.350030 1.016041 -5.007486 -5.005056 -6.838610 1.520662 6.381353 10.256494 1.072105 4.939283 11.643072 11.235797 0.261260 -6.335771 -5.044022 16.200960 3.943784 6.658661 -5.098868 2.557188 -0.972815 -2.302916 -2.695186 2.070099 0.066052 0.687796 0.035965
-12.965047 89.522684 8.516734 -157.478077 -6.588284 -7.477539 3.394416 13.698792 -1.663851 2.069094 7.767327 -0.678205 2.577809 9.712559 -0.805247 2.069099 7.767330 -0.678198 -2.176808 11.652171 2.055992 -2.778998 -13.408557 2.678768 11.287298 1.345843 -14.336314 -12.238502 -35.497235 41.581084 51.951491 -15.823857 5.960374 5.525811 -10.771611 -6.808397 -16.781546 -5.455481 2.114617 7.228644 -51.099569 -70.773036 -21.612823 -2.829666 -5.321566 -6.543957 0.992403 -5.181129 -4.949644 -6.780641 1.423443 6.430191 10.450117 1.088533 4.887683 11.349364 11.191073 0.255461 -6.215079 -4.989276 16.073217 4.075881 6.627829 -5.108591 2.581055 -0.976386 -2.263400 -2.766438 2.057531 0.065771 0.695685 0.036936
-12.990543 89.508332 8.447870 -157.394042 -6.663085 -7.416384 3.341257 13.638938 -1.622735 2.037183 7.733994 -0.648768 2.538469 9.670686 -0.769230 2.037187 7.733996 -0.648761 -2.048814 11.737190 1.964137 -2.617036 -13.322151 2.546917 11.257493 1.378343 -14.275426 -12.263099 -35.673903 41.703190 52.212191 -15.603808 6.483744 5.603007 -10.748833 -6.874956 -16.833967 -5.464684 2.020024 7.310342 -51.008863 -70.849805 -21.153590 -2.835053 -5.060848 -6.735414 0.973454 -5.365641 -4.885709 -6.717948 1.323464 6.471763 10.645981 1.103613 4.839392 11.043954 11.145505 0.248199 -6.086310 -4.932728 15.937832 4.210205 6.596561 -5.118825 2.608717 -0.981049 -2.224555 -2.842252 2.046305 0.065214 0.705713 0.035837
-13.014133 89.492745 8.377819 -157.307729 -6.741249 -7.352419 3.286378 13.580004 -1.581735 2.003996 7.701060 -0.619939 2.497516 9.629319 -0.733995 2.004000 7.701062 -0.619932 -1.922625 11.824988 1.875619 -2.458436 -13.232989 2.419577 11.231989 1.407018 -14.215335 -12.265586 -35.836159 41.838284 52.472246 -15.352245 6.976086 5.688767 -10.716308 -6.947393 -16.887639 -5.470745 1.931873 7.409804 -50.918323 -70.945377 -20.694714 -2.845443 -4.791451 -6.915814 0.958241 -5.553901 -4.810872 -6.649275 1.218492 6.504859 10.840210 1.119540 4.801166 10.728521 11.097360 0.240085 -5.948343 -4.872994 15.800497 4.349301 6.565254 -5.125625 2.634900 -0.987737 -2.190198 -2.919708 2.036979 0.064450 0.717468 0.033204
-13.035057 89.475936 8.307803 -157.222330 -6.816410 -7.285358 3.231515 13.519859 -1.540004 1.969988 7.667704 -0.592018 2.455511 9.587434 -0.699912 1.969992 7.667707 -0.592011 -1.798960 11.915687 1.790448 -2.303942 -13.140961 2.296901 11.213396 1.429340 -14.155196 -12.235540 -35.966094 41.969132 52.741564 -15.072188 7.421607 5.780107 -10.679449 -7.019539 -16.938745 -5.474965 1.846911 7.507225 -50.829347 -71.049311 -20.237720 -2.866730 -4.513206 -7.077355 0.946551 -5.740181 -4.722659 -6.577389 1.106778 6.537206 11.022112 1.142452 4.764166 10.407890 11.045667 0.231746 -5.798507 -4.811568 15.668190 4.488087 6.533220 -5.129173 2.654046 -0.997801 -2.162449 -2.995204 2.029480 0.062963 0.731101 0.029986
-13.052559 89.458045 8.238572 -157.139775 -6.883900 -7.216636 3.179944 13.455043 -1.495678 1.936059 7.632876 -0.564610 2.413591 9.543714 -0.666471 1.936064 7.632878 -0.564602 -1.679500 12.010422 1.708712 -2.155326 -13.044912 2.179353 11.196722 1.448814 -14.096055 -12.168554 -36.063227 42.088627 53.018817 -14.773515 7.821433 5.877275 -10.643741 -7.087596 -16.988217 -5.475746 1.761955 7.587569 -50.743370 -71.151789 -19.780868 -2.900941 -4.224329 -7.217685 0.938687 -5.924304 -4.620632 -6.498802 0.989843 6.580510 11.173990 1.175555 4.712600 10.088766 10.995196 0.222908 -5.633265 -4.754061 15.545432 4.620703 6.501314 -5.130380 2.665747 -1.011721 -2.141519 -3.068280 2.022844 0.060972 0.746996 0.027198
-13.066758 89.439274 8.170253 -157.059583 -6.942823 -7.145289 3.131298 13.384322 -1.449292 1.902199 7.595991 -0.537418 2.371749 9.497431 -0.633306 1.902204 7.595993 -0.537409 -1.564060 12.111128 1.628454 -2.011866 -12.942897 2.064758 11.180414 1.472239 -14.040697 -12.072275 -36.142176 42.203363 53.298181 -14.467060 8.189063 5.984031 -10.606517 -7.149594 -17.040753 -5.473092 1.673918 7.650037 -50.660311 -71.245931 -19.322545 -2.950529 -3.921564 -7.339001 0.936780 -6.111312 -4.507569 -6.412775 0.867223 6.641693 11.292413 1.216782 4.644571 9.771641 10.954968 0.214207 -5.451509 -4.706620 15.429697 4.746170 6.466529 -5.129204 2.671322 -1.026547 -2.124278 -3.138802 2.014603 0.059397 0.764147 0.025682
-13.078582 89.419878 8.102391 -156.978508 -6.995234 -7.068252 3.082091 13.310807 -1.404199 1.868085 7.557281 -0.509934 2.329593 9.448870 -0.599783 1.868091 7.557284 -0.509925 -1.452012 12.218365 1.547457 -1.872337 -12.834386 1.950599 11.170355 1.502491 -13.985185 -11.959075 -36.220508 42.312376 53.577463 -14.166701 8.547974 6.095361 -10.560708 -7.205046 -17.098451 -5.472642 1.577171 7.697120 -50.575557 -71.327324 -18.863605 -3.013518 -3.608439 -7.447298 0.941258 -6.299429 -4.389188 -6.327807 0.738469 6.717065 11.400186 1.260961 4.564896 9.448539 10.928174 0.206252 -5.254809 -4.671143 15.315274 4.867025 6.425831 -5.127945 2.673000 -1.042423 -2.107521 -3.206172 2.005120 0.057982 0.780310 0.025017
-13.088960 89.400180 8.034094 -156.892485 -7.043712 -6.983891 3.029678 13.239342 -1.363142 1.833619 7.518141 -0.481955 2.287000 9.399771 -0.565643 1.833624 7.518143 -0.481945 -1.342345 12.329855 1.466135 -1.735782 -12.721726 1.837107 11.172767 1.532822 -13.921142 -11.842440 -36.305886 42.410190 53.858016 -13.888807 8.923658 6.193904 -10.507261 -7.249762 -17.155427 -5.484091 1.468707 7.733726 -50.486287 -71.400254 -18.408502 -3.077783 -3.296310 -7.546093 0.949650 -6.480063 -4.270450 -6.249330 0.604422 6.792522 11.516496 1.302191 4.483952 9.113667 10.912617 0.198887 -5.044460 -4.645511 15.197862 4.987195 6.378686 -5.128579 2.670488 -1.060691 -2.090900 -3.268965 1.996541 0.055888 0.793669 0.023745
-13.098414 89.380530 7.964409 -156.798585 -7.089070 -6.892599 2.973131 13.170198 -1.326357 1.798534 7.478846 -0.453640 2.243636 9.350482 -0.531090 1.798539 7.478849 -0.453630 -1.234276 12.445364 1.385585 -1.601635 -12.605173 1.725268 11.190182 1.559155 -13.845418 -11.731728 -36.391200 42.502652 54.144894 -13.638542 9.323465 6.265460 -10.453226 -7.269436 -17.204667 -5.504980 1.351890 7.779282 -50.399068 -71.484243 -17.959171 -3.128065 -2.992989 -7.636878 0.959270 -6.648870 -4.156635 -6.175967 0.465085 6.853773 11.642798 1.338263 4.417779 8.768232 10.900916 0.191135 -4.821319 -4.623279 15.074602 5.110967 6.324923 -5.129413 2.658197 -1.080069 -2.074623 -3.323898 1.988968 0.052832 0.803628 0.021364
-13.106794 89.361306 7.892355 -156.697941 -7.130799 -6.797311 2.914229 13.100631 -1.290572 1.763246 7.438477 -0.424366 2.200034 9.299851 -0.495338 1.763253 7.438480 -0.424356 -1.129007 12.564746 1.304930 -1.470945 -12.484868 1.614447 11.217707 1.584344 -13.765664 -11.623892 -36.461765 42.602192 54.445743 -13.410310 9.733106 6.309599 -10.403431 -7.249737 -17.245320 -5.526167 1.231052 7.858267 -50.317926 -71.604495 -17.515246 -3.150849 -2.699397 -7.724716 0.967535 -6.805710 -4.052223 -6.104964 0.322619 6.897675 11.773139 1.372469 4.373203 8.417863 10.878712 0.182238 -4.588387 -4.593803 14.948960 5.237673 6.267452 -5.129438 2.635332 -1.099197 -2.060419 -3.371131 1.980415 0.048943 0.810776 0.018753
-13.113406 89.342859 7.817228 -156.594536 -7.166394 -6.702086 2.856405 13.030005 -1.251245 1.729025 7.397146 -0.393925 2.157787 9.248019 -0.458101 1.729032 7.397149 -0.393914 -1.027332 12.682187 1.224198 -1.344563 -12.366702 1.504888 11.246788 1.608362 -13.689871 -11.507969 -36.510270 42.710824 54.761739 -13.199066 10.137704 6.326112 -10.362453 -7.197705 -17.280826 -5.548741 1.110878 7.974535 -50.240034 -71.771384 -17.080501 -3.142480 -2.407431 -7.813964 0.974731 -6.953513 -3.957755 -6.034795 0.182374 6.932320 11.898317 1.406742 4.346184 8.070025 10.835479 0.172978 -4.350868 -4.548090 14.830825 5.361585 6.211235 -5.128647 2.605073 -1.117598 -2.054260 -3.413392 1.969374 0.044992 0.816139 0.016411
